# xmcd CD database file
#
# Track frame offsets:
#	150
#	8493
#	40945
#	61456
#	76351
#	103001
#	107945
#	133145
#	156839
#	183006
#	203469
#
# Disc length: 2736 seconds
#
# Revision: 0
# Processed by: cddbd v1.5PL3 Copyright (c) Steve Scherf et al.
# Submitted via: CDex 1.50
#
DISCID=860aae0b
DTITLE=Lenny Breau - The Velvet Touch of Lenny Breau - Live!
DYEAR=1975
DGENRE=Jazz
TTITLE0=Tuning Time
TTITLE1=No Greater Love
TTITLE2=The Claw
TTITLE3=Indian Reflections for Ravi
TTITLE4=That's All
TTITLE5=Blues Theme
TTITLE6=Mercy, Mercy, Mercy
TTITLE7=Spanjazz
TTITLE8=Bluesette
TTITLE9=A Taste of Honey
TTITLE10=Blues Theme, No. 2
EXTD=YEAR: 1975
EXTT0=
EXTT1=
EXTT2=
EXTT3=
EXTT4=
EXTT5=
EXTT6=
EXTT7=
EXTT8=
EXTT9=
EXTT10=
PLAYORDER=
